PathFileType	4	(X/Y/Z)	s08c0102.trc
DataRate	CameraRate	NumFrames	NumMarkers	Units	OrigDataRate	OrigDataStartFrame	OrigNumFrames
200	200	4	50	mm	200	1750	2000
Frame#	Time	racr			lacr			c7			jug			rlel			rdr			llel			ldr			s2			lic			ric			lasi			rasi			rpsi			lpsi			rgt			lgt			rth1			rth2			rth3			rth4			rlfc			rmfc			rsh1			rsh2			rsh3			rsh4			rlmal			rmmal			rcal			rtoe			rmt5			lth1			lth2			lth4			lth3			llfc			lmfc			llmal			lmmal			lcal			lmt5			lsh1			lsh2			lsh3			lsh4			ltoe			SBIKE			LBIKE			RBIKE			
		X1	Y1	Z1	X2	Y2	Z2	X3	Y3	Z3	X4	Y4	Z4	X5	Y5	Z5	X6	Y6	Z6	X7	Y7	Z7	X8	Y8	Z8	X9	Y9	Z9	X10	Y10	Z10	X11	Y11	Z11	X12	Y12	Z12	X13	Y13	Z13	X14	Y14	Z14	X15	Y15	Z15	X16	Y16	Z16	X17	Y17	Z17	X18	Y18	Z18	X19	Y19	Z19	X20	Y20	Z20	X21	Y21	Z21	X22	Y22	Z22	X23	Y23	Z23	X24	Y24	Z24	X25	Y25	Z25	X26	Y26	Z26	X27	Y27	Z27	X28	Y28	Z28	X29	Y29	Z29	X30	Y30	Z30	X31	Y31	Z31	X32	Y32	Z32	X33	Y33	Z33	X34	Y34	Z34	X35	Y35	Z35	X36	Y36	Z36	X37	Y37	Z37	X38	Y38	Z38	X39	Y39	Z39	X40	Y40	Z40	X41	Y41	Z41	X42	Y42	Z42	X43	Y43	Z43	X44	Y44	Z44	X45	Y45	Z45	X46	Y46	Z46	X47	Y47	Z47	X48	Y48	Z48	X49	Y49	Z49	X50	Y50	Z50	
1750	8.7500	526.530242	1355.893616	-47.846830	543.737371	1371.898194	-371.861785	511.724106	1428.509216	-209.135638	462.210384	1276.486220	-209.151916	593.810048	1109.821201	24.915365	797.790697	896.084026	-64.089083	625.944006	1126.650192	-463.796216	804.394961	888.724931	-421.584687	-53.308768	1215.287489	-246.819254	122.437277	1196.915742	-379.316027	98.345906	1227.388141	-72.698495	135.614767	1144.301885	-348.204911	120.311165	1181.858754	-101.174709	-23.817627	1259.915322	-196.523318	-15.614065	1256.557119	-292.503354	28.050113	1127.556868	-38.572431	49.868977	1081.284736	-418.452489	174.189589	1034.752216	-36.010920	260.056497	1013.501045	-38.622890	322.371639	952.709501	-45.397500	277.230093	1044.205584	-49.669863	418.825953	879.618203	-66.007864	395.664596	870.952480	-202.104261	367.461939	759.025587	-36.580556	370.356315	670.297510	-54.785389	329.504776	594.397123	-59.308591	398.172611	668.051040	-84.333422	294.338880	477.621742	-68.310901	309.055652	500.856185	-156.197636	216.286470	439.644142	-111.877569	512.933400	460.169874	-112.378671	429.192505	420.347163	-44.388642	126.547203	970.185379	-426.818347	193.162377	913.663822	-424.513651	222.251779	933.706083	-414.578079	222.968526	829.926262	-424.391462	273.333650	710.386974	-402.628322	269.065567	686.873226	-296.598084	69.946684	348.757056	-401.725206	183.938875	396.282980	-357.819739	7.464073	357.474587	-362.130341	159.561494	205.664535	-420.041757	213.918177	597.018221	-427.749537	191.173276	516.399449	-408.944971	132.549762	450.739365	-411.898071	211.521667	509.607388	-375.919332	246.049275	193.190741	-351.700219	-147.198895	938.993400	-227.975968	9.311227	79.905406	-426.963995	10.583267	80.200275	-28.410001	
1751	8.7550	526.949316	1356.374222	-48.748890	543.599591	1371.652138	-372.527020	511.679862	1428.560168	-209.776346	462.180479	1276.463756	-209.668464	594.480235	1110.450314	24.231120	797.969587	895.980945	-64.199820	625.749505	1126.529092	-464.618217	804.319275	888.783898	-421.718948	-53.649254	1215.240201	-246.072747	121.773394	1197.530410	-379.276587	98.561711	1226.737998	-72.064492	135.214553	1145.218337	-347.400218	120.844201	1180.965704	-99.941026	-23.912890	1259.737996	-195.627517	-15.939893	1256.601094	-291.561771	27.907380	1126.014471	-38.634792	50.796030	1082.184324	-418.236298	172.578630	1030.508989	-35.923110	258.496240	1007.849355	-38.536595	318.848220	945.848017	-44.256685	276.210815	1038.343501	-48.639418	415.513799	872.300237	-66.245846	397.125985	860.642007	-182.811669	366.091024	750.372780	-36.824587	370.774810	661.818571	-54.603109	331.717103	585.023093	-59.414819	398.326969	660.198988	-83.975704	298.926877	467.809165	-68.089445	312.814705	491.097026	-155.535029	221.285646	429.078881	-111.755738	517.769042	452.253818	-112.338555	434.461227	411.494181	-44.519200	130.693727	973.869021	-428.468230	197.253192	917.485092	-423.165994	225.798825	937.951865	-412.472463	228.920338	834.351961	-424.076697	279.569972	714.852134	-402.820843	274.953466	691.047956	-296.634594	67.981748	358.351272	-401.906264	170.965386	399.601148	-353.426025	5.465962	368.526772	-362.206686	154.483636	213.637340	-420.065620	218.269608	602.574496	-427.860982	193.438879	522.718405	-408.993264	133.171213	458.498427	-411.983223	213.506256	515.315119	-375.711335	240.725643	199.470234	-351.668157	-147.215281	938.983007	-228.053853	9.304659	79.896670	-426.987488	10.598395	80.187363	-28.409587	
1752	8.7600	527.377089	1356.746012	-49.573787	543.367225	1371.378985	-373.485372	511.627628	1428.594597	-210.526855	462.188090	1276.435558	-210.372537	595.045237	1110.829724	23.540315	798.150003	895.848146	-64.292425	625.515008	1126.373517	-465.550732	804.249659	888.837140	-421.857853	-53.840695	1215.113039	-245.318342	120.877154	1197.810426	-378.902343	98.949641	1226.121938	-71.357679	134.968851	1146.304711	-346.830194	121.564005	1180.153294	-99.650747	-23.905032	1259.418277	-194.608169	-16.181794	1256.577448	-290.596080	27.767760	1124.320827	-38.615278	51.718470	1083.110310	-418.146175	171.198967	1026.074473	-35.706698	256.619656	1001.681768	-38.417750	316.277132	938.708027	-45.550960	274.972481	1032.158767	-47.657661	411.846822	864.138929	-65.934137	396.334965	850.235069	-176.828774	364.466161	741.718112	-36.872027	370.970360	653.149668	-54.464069	333.519023	575.608852	-59.185552	398.661859	652.220339	-84.105862	303.142903	457.743755	-67.741409	316.916655	481.212898	-155.904952	225.840185	418.715951	-111.314222	522.156402	443.838175	-112.247030	439.261340	402.500855	-44.707830	133.732270	976.457735	-427.673263	201.262193	921.371950	-421.885294	229.271865	942.255887	-410.418320	234.552374	839.112112	-423.411845	285.852816	719.498333	-402.959790	281.651658	695.168125	-298.313511	66.509449	368.177161	-402.089018	155.812698	401.842124	-347.959776	4.075359	379.592233	-362.353245	150.020499	221.851868	-420.069577	222.705901	608.318213	-428.001451	195.966954	529.112455	-408.939715	134.228220	466.363066	-411.958308	215.751949	521.328444	-375.674201	235.841922	206.020895	-351.738345	-147.228877	938.985702	-228.094049	9.319362	79.902449	-426.981286	10.616038	80.202856	-28.423020	
1753	8.7650	527.814279	1357.159947	-50.606980	543.041304	1371.094203	-374.352947	511.569861	1428.613504	-211.290993	462.190997	1276.373590	-211.001955	595.441451	1111.077581	22.993948	798.268433	895.734370	-64.416258	625.270519	1126.088740	-466.382613	804.164828	888.890748	-421.961681	-54.030417	1214.826106	-244.362627	120.253392	1197.967648	-378.668120	99.355105	1225.237083	-70.720800	134.726871	1147.014879	-346.047628	122.127488	1179.102240	-98.703008	-23.780609	1259.013749	-193.503954	-16.386170	1256.611792	-289.758932	27.576228	1122.616385	-38.518869	52.778995	1083.978530	-417.941366	169.758337	1021.426054	-35.523054	254.335080	995.082377	-38.737077	313.531867	931.546886	-46.449407	273.702881	1025.717811	-46.699116	408.086374	856.177666	-66.276331	393.177027	842.407513	-177.307994	362.449930	732.769251	-36.913895	370.922435	644.432434	-54.218579	334.951638	566.071451	-59.031765	398.560045	644.022360	-83.939683	306.956426	447.597675	-67.403257	320.227413	471.169594	-154.983711	229.959373	408.516363	-110.478514	526.127759	435.026890	-112.344383	443.522260	393.147051	-44.735568	136.580419	979.077739	-426.581126	205.373107	925.505554	-421.075863	232.606906	946.461462	-408.205591	240.205326	843.667914	-422.741511	292.195352	724.440541	-403.129138	287.655900	700.197450	-297.143202	65.759365	378.158194	-402.243063	138.311963	402.891998	-341.343820	3.080433	391.149120	-362.590711	146.010093	230.384710	-420.117439	227.364042	614.308646	-428.082089	198.775808	535.718950	-408.970138	135.604750	474.442367	-411.971415	218.278339	527.527507	-375.425179	231.427816	212.940611	-351.953252	-147.230345	938.982094	-228.129925	9.329460	79.896569	-426.983203	10.617444	80.203699	-28.421188	
